<?xml version="1.0" encoding="UTF-8"?>
<svg width="68px" height="40px" viewBox="0 0 68 40" version="1.1" xmlns="http://www.w3.org/2000/svg" xmlns:xlink="http://www.w3.org/1999/xlink">
    <!-- Generator: Sketch 49.3 (51167) - http://www.bohemiancoding.com/sketch -->
    <title>logo</title>
    <desc>Created with Sketch.</desc>
    <defs>
        <polygon id="path-1" points="0.105057718 0.00422727273 15.161353 0.00422727273 15.161353 15 0.105057718 15"></polygon>
        <path d="M1.27146309,7.11090909 C1.27146309,11.3359091 4.50077852,12.9131818 7.79307383,13.8268182 C11.1168591,14.7418182 12.383302,15.2772727 12.383302,16.6336364 C12.383302,17.4845455 11.782255,18.4309091 9.37578523,18.4309091 C6.87484564,18.4309091 5.51393289,17.2009091 4.72257718,15.3722727 L0.353234899,17.8945455 C1.58773154,21.1427273 4.56330201,23.3495455 9.21742282,23.3495455 C14.029906,23.3495455 17.4490738,20.8268182 17.4490738,16.5704545 C17.4490738,11.9040909 13.6812349,10.7372727 10.325047,9.72818182 C6.87484564,8.68772727 6.33677852,7.99363636 6.33677852,6.985 C6.33677852,6.10181818 7.1285906,5.31409091 8.71084564,5.31409091 C10.7371544,5.31409091 11.782255,6.29136364 12.5416644,7.86772727 L16.8151678,5.37681818 C15.2005101,2.12909091 12.3513557,0.395 8.71084564,0.395 C4.88002685,0.395 1.27146309,2.85454545 1.27146309,7.11090909" id="path-3"></path>
        <linearGradient x1="50.0002333%" y1="0.000625940594%" x2="50.0002333%" y2="99.9996061%" id="linearGradient-5">
            <stop stop-color="#C6DFB8" offset="0%"></stop>
            <stop stop-color="#9CCFBA" offset="100%"></stop>
        </linearGradient>
        <path d="M0.0944697987,0.381818182 L0.0944697987,22.4536364 L5.15978523,22.4536364 L5.15978523,15.2013636 L7.56625503,15.2013636 L11.7448322,22.4536364 L17.189396,22.4536364 L12.4722953,14.35 C14.9107114,13.12 16.5564027,10.6609091 16.5564027,7.94909091 C16.5564027,3.75590909 13.1691812,0.381818182 8.95820134,0.381818182 L0.0944697987,0.381818182 Z M5.15978523,5.11181818 L8.95820134,5.11181818 C10.3515168,5.11181818 11.4910872,6.34090909 11.4910872,7.94909091 C11.4910872,9.55727273 10.3515168,10.7872727 8.95820134,10.7872727 L5.15978523,10.7872727 L5.15978523,5.11181818 Z" id="path-6"></path>
        <linearGradient x1="49.9999309%" y1="-8.60826229e-05%" x2="49.9999309%" y2="100.000335%" id="linearGradient-8">
            <stop stop-color="#C6DFB8" offset="0%"></stop>
            <stop stop-color="#9CCFBA" offset="100%"></stop>
        </linearGradient>
        <path d="M0.393852349,11.9040909 C0.393852349,18.2413636 5.3966443,23.3495455 12.3618523,23.3495455 C18.5662819,23.3495455 23.2829262,19.2509091 23.2829262,12.5031818 L23.2829262,10.6113636 L12.1715436,10.6113636 L12.1715436,15.0259091 L18.0911946,15.0259091 C17.2998389,17.1381818 15.3689128,18.4309091 12.4248322,18.4309091 C8.11938255,18.4309091 5.45962416,15.6872727 5.45962416,11.9354545 C5.45962416,8.05727273 8.24579866,5.31409091 11.9812349,5.31409091 C14.4821745,5.31409091 16.4769933,6.44909091 17.3947651,7.89909091 L21.7006711,5.44045455 C19.8327248,2.47590909 16.255651,0.395 12.0131812,0.395 C5.49157047,0.395 0.393852349,5.50272727 0.393852349,11.9040909" id="path-9"></path>
        <linearGradient x1="50.0017847%" y1="0.000625940594%" x2="50.0017847%" y2="99.9996061%" id="linearGradient-11">
            <stop stop-color="#C6DFB8" offset="0%"></stop>
            <stop stop-color="#9CCFBA" offset="100%"></stop>
        </linearGradient>
    </defs>
    <g id="secondary" stroke="none" stroke-width="1" fill="none" fill-rule="evenodd">
        <g id="desktop-copy-5" transform="translate(-150.000000, -46.000000)">
            <g id="Group-4" transform="translate(-131.000000, 0.000000)">
                <g id="logo" transform="translate(281.000000, 46.000000)">
                    <polygon id="Fill-1" fill="#204E9E" points="0.388147651 29.0960909 8.44865772 38.0101818 9.59233557 36.9847273 1.5318255 28.0701818"></polygon>
                    <polygon id="Fill-2" fill="#204E9E" points="0 36.4846818 1.02958389 37.6242273 9.98002685 29.5955909 8.94998658 28.4565"></polygon>
                    <path d="M13.2508268,15.2283182 L26.1653503,7.96059091 L13.388196,0.453772727 L13.2508268,15.2283182 Z M15.0343436,3.35604545 L22.8192027,7.92922727 L14.9499141,12.3574091 L15.0343436,3.35604545 Z" id="Fill-3" fill="#19A56F"></path>
                    <g id="Group-9" transform="translate(37.879195, 0.000000)">
                        <g id="Group-6" transform="translate(0.000000, 25.000000)">
                            <mask id="mask-2" fill="white">
                                <use xlink:href="#path-1"></use>
                            </mask>
                            <g id="Clip-5"></g>
                            <path d="M7.63343356,1.67013636 C4.4045745,1.67013636 1.77767517,4.2865 1.77767517,7.50240909 C1.77767517,10.7178636 4.4045745,13.3337727 7.63343356,13.3337727 C10.8613799,13.3337727 13.4882792,10.7178636 13.4882792,7.50240909 C13.4882792,4.2865 10.8613799,1.67013636 7.63343356,1.67013636 M7.63343356,15.0001364 C3.48178255,15.0001364 0.105057718,11.6365 0.105057718,7.50240909 C0.105057718,3.36740909 3.48178255,0.00422727273 7.63343356,0.00422727273 C11.7841718,0.00422727273 15.161353,3.36740909 15.161353,7.50240909 C15.161353,11.6365 11.7841718,15.0001364 7.63343356,15.0001364" id="Fill-4" fill="#C14444" mask="url(#mask-2)"></path>
                        </g>
                        <path d="M14.4157718,8.93045455 L21.0163356,15.5040909 L27.616443,8.93045455 L21.0163356,2.35681818 L14.4157718,8.93045455 Z M21.0163356,17.8609091 L12.0494631,8.93045455 L21.0163356,0 L29.9822953,8.93045455 L21.0163356,17.8609091 Z" id="Fill-7" fill="#9E3C7B"></path>
                    </g>
                    <g id="Group-12" transform="translate(3.194631, 9.545455)">
                        <mask id="mask-4" fill="white">
                            <use xlink:href="#path-3"></use>
                        </mask>
                        <g id="Clip-11"></g>
                        <path d="M1.27146309,7.11090909 C1.27146309,11.3359091 4.50077852,12.9131818 7.79307383,13.8268182 C11.1168591,14.7418182 12.383302,15.2772727 12.383302,16.6336364 C12.383302,17.4845455 11.782255,18.4309091 9.37578523,18.4309091 C6.87484564,18.4309091 5.51393289,17.2009091 4.72257718,15.3722727 L0.353234899,17.8945455 C1.58773154,21.1427273 4.56330201,23.3495455 9.21742282,23.3495455 C14.029906,23.3495455 17.4490738,20.8268182 17.4490738,16.5704545 C17.4490738,11.9040909 13.6812349,10.7372727 10.325047,9.72818182 C6.87484564,8.68772727 6.33677852,7.99363636 6.33677852,6.985 C6.33677852,6.10181818 7.1285906,5.31409091 8.71084564,5.31409091 C10.7371544,5.31409091 11.782255,6.29136364 12.5416644,7.86772727 L16.8151678,5.37681818 C15.2005101,2.12909091 12.3513557,0.395 8.71084564,0.395 C4.88002685,0.395 1.27146309,2.85454545 1.27146309,7.11090909" id="Fill-10" fill="url(#linearGradient-5)" mask="url(#mask-4)"></path>
                    </g>
                    <g id="Group-15" transform="translate(24.187919, 10.000000)">
                        <mask id="mask-7" fill="white">
                            <use xlink:href="#path-6"></use>
                        </mask>
                        <g id="Clip-14"></g>
                        <path d="M0.0944697987,0.381818182 L0.0944697987,22.4536364 L5.15978523,22.4536364 L5.15978523,15.2013636 L7.56625503,15.2013636 L11.7448322,22.4536364 L17.189396,22.4536364 L12.4722953,14.35 C14.9107114,13.12 16.5564027,10.6609091 16.5564027,7.94909091 C16.5564027,3.75590909 13.1691812,0.381818182 8.95820134,0.381818182 L0.0944697987,0.381818182 Z M5.15978523,5.11181818 L8.95820134,5.11181818 C10.3515168,5.11181818 11.4910872,6.34090909 11.4910872,7.94909091 C11.4910872,9.55727273 10.3515168,10.7872727 8.95820134,10.7872727 L5.15978523,10.7872727 L5.15978523,5.11181818 Z" id="Fill-13" fill="url(#linearGradient-8)" mask="url(#mask-7)"></path>
                    </g>
                    <g id="Group-18" transform="translate(43.355705, 9.545455)">
                        <mask id="mask-10" fill="white">
                            <use xlink:href="#path-9"></use>
                        </mask>
                        <g id="Clip-17"></g>
                        <path d="M0.393852349,11.9040909 C0.393852349,18.2413636 5.3966443,23.3495455 12.3618523,23.3495455 C18.5662819,23.3495455 23.2829262,19.2509091 23.2829262,12.5031818 L23.2829262,10.6113636 L12.1715436,10.6113636 L12.1715436,15.0259091 L18.0911946,15.0259091 C17.2998389,17.1381818 15.3689128,18.4309091 12.4248322,18.4309091 C8.11938255,18.4309091 5.45962416,15.6872727 5.45962416,11.9354545 C5.45962416,8.05727273 8.24579866,5.31409091 11.9812349,5.31409091 C14.4821745,5.31409091 16.4769933,6.44909091 17.3947651,7.89909091 L21.7006711,5.44045455 C19.8327248,2.47590909 16.255651,0.395 12.0131812,0.395 C5.49157047,0.395 0.393852349,5.50272727 0.393852349,11.9040909" id="Fill-16" fill="url(#linearGradient-11)" mask="url(#mask-10)"></path>
                    </g>
                </g>
            </g>
        </g>
    </g>
</svg>