<?xml version="1.0" encoding="UTF-8"?>
<svg width="55px" height="54px" viewBox="0 0 55 54" version="1.1" xmlns="http://www.w3.org/2000/svg" xmlns:xlink="http://www.w3.org/1999/xlink">
    <!-- Generator: Sketch 49.3 (51167) - http://www.bohemiancoding.com/sketch -->
    <title>social-slack</title>
    <desc>Created with Sketch.</desc>
    <defs></defs>
    <g id="secondary" stroke="none" stroke-width="1" fill="none" fill-rule="evenodd" opacity="0.9">
        <g id="desktop-copy-5" transform="translate(-162.000000, -5182.000000)" fill="#FFFFFF">
            <g id="Group-17" transform="translate(-204.000000, 4842.000000)">
                <g id="social-slack" transform="translate(366.000000, 340.000000)">
                    <path d="M33.7569331,21.8439642 C35.3323006,21.3330371 36.3455845,21.0044066 36.3455845,21.0044066 C37.6950282,20.566741 38.4336038,19.1198951 37.9951411,17.7726689 C37.5566783,16.4256787 36.1071969,15.6884459 34.7575168,16.1261115 L32.1690325,16.965917 C31.6571236,15.3933285 31.3278581,14.3818229 31.3278581,14.3818229 C30.8893953,13.0345967 29.439914,12.2973639 28.0904703,12.7352656 C26.7407901,13.1729311 26.0022144,14.6197771 26.4409137,15.9667672 L27.282468,18.5513097 L21.8751596,20.3056521 C21.363077,18.7324584 21.0336791,17.7204984 21.0336791,17.7204984 C20.5949798,16.3735082 19.1454985,15.6362754 17.7960548,16.073941 C16.4463746,16.5116066 15.707799,17.9584525 16.1464983,19.3056787 L16.9883469,21.8911253 L14.3167321,22.7579016 C13.0559742,23.2130361 12.3474335,24.5725377 12.7239344,25.8775082 C13.1162806,27.2386623 14.5645794,28.0684327 15.9040903,27.6340722 C15.9155605,27.6303444 16.962098,27.2909231 18.576127,26.767453 L20.3341382,32.1665647 L17.6617253,33.0336 C16.4009675,33.4887344 15.6924268,34.848236 16.0686912,36.1532065 C16.4612738,37.5143607 17.9095727,38.3441311 19.2488471,37.9097705 C19.2603729,37.9060421 20.3073373,37.5664918 21.9219049,37.0428513 L22.7901317,39.7092984 C23.2463316,40.967764 24.6083096,41.6750164 25.915657,41.2992 C27.2792905,40.9075672 28.1105725,39.4619016 27.6754206,38.1248262 C27.6716866,38.1133785 27.3317461,37.0690481 26.8074533,35.4583556 C28.5736632,34.8855268 30.4538756,34.2757268 32.2163771,33.7041031 L33.0845472,36.3703869 C33.5407472,37.6288525 34.9027251,38.3361049 36.2100725,37.9605246 C37.573706,37.5686558 38.404988,36.1229902 37.9698361,34.7861509 C37.9661022,34.77465 37.6261545,33.7303055 37.1018496,32.1196197 C38.6771259,31.608717 39.6903413,31.2801049 39.6903413,31.2801049 C41.0400215,30.8424393 41.7783607,29.3955934 41.3398978,28.0483672 C40.9014351,26.7013771 39.4519538,25.9641442 38.10251,26.4018098 L35.513977,27.2416312 C34.9402473,25.479122 34.3294896,23.602865 33.7569331,21.8439642 Z M28.8706016,23.4287123 L30.6282593,28.8267492 L25.2199745,30.5814083 C24.6461628,28.8185787 24.0352952,26.9419056 23.462644,25.1826379 C25.2285296,24.6099198 27.1083772,24.0002419 28.8706016,23.4287123 Z M0,27 C0,12.088311 12.1278303,0 27.0882687,0 C42.0487072,0 54.1765375,12.088311 54.1765375,27 C54.1765375,41.911689 42.0487072,54 27.0882687,54 C12.1278303,54 0,41.911689 0,27 Z" id="Combined-Shape"></path>
                </g>
            </g>
        </g>
    </g>
</svg>