<?xml version="1.0" encoding="UTF-8"?>
<svg width="54px" height="54px" viewBox="0 0 54 54" version="1.1" xmlns="http://www.w3.org/2000/svg" xmlns:xlink="http://www.w3.org/1999/xlink">
    <!-- Generator: Sketch 49.3 (51167) - http://www.bohemiancoding.com/sketch -->
    <title>social-twitter</title>
    <desc>Created with Sketch.</desc>
    <defs></defs>
    <g id="secondary" stroke="none" stroke-width="1" fill="none" fill-rule="evenodd" opacity="0.9">
        <g id="desktop-copy-5" transform="translate(-454.000000, -5182.000000)" fill="#FFFFFF">
            <g id="Group-17" transform="translate(-204.000000, 4842.000000)">
                <g id="social-twitter" transform="translate(658.000000, 340.000000)">
                    <path d="M0,27 C0,12.088311 12.088311,0 27,0 C41.911689,0 54,12.088311 54,27 C54,41.911689 41.911689,54 27,54 C12.088311,54 0,41.911689 0,27 Z M26.191353,21.9459382 L26.2480108,22.8801991 L25.3037137,22.7657998 C21.8664723,22.3272692 18.8636075,20.8400783 16.3140053,18.3423604 L15.0675332,17.1030347 L14.7464722,18.0182291 C14.0665783,20.0583498 14.5009549,22.2128699 15.9174006,23.6619276 C16.6728382,24.4627227 16.5028648,24.577122 15.1997348,24.1004583 C14.7464722,23.9479259 14.3498674,23.8335266 14.3120955,23.8907262 C14.1798939,24.0241921 14.6331565,25.7592481 14.9919894,26.4456438 C15.4830239,27.3989713 16.4839788,28.3332322 17.5793634,28.8861621 L18.5047746,29.3246928 L17.40939,29.3437593 C16.3517772,29.3437593 16.3140053,29.3628259 16.427321,29.7632234 C16.8050398,31.0025491 18.2970292,32.318141 19.9589921,32.8901375 L21.1299205,33.290535 L20.1100797,33.9006646 C18.5992043,34.7777258 16.8239258,35.2734561 15.0486472,35.3115892 C14.1987799,35.3306558 13.5,35.406922 13.5,35.4641216 C13.5,35.6547871 15.8040849,36.7225139 17.1449868,37.141978 C21.1676924,38.3813037 25.9458357,37.8474403 29.5341647,35.7310533 C32.0837668,34.2247959 34.633369,31.2313477 35.8231833,28.3332322 C36.4653053,26.7888417 37.1074274,23.9669924 37.1074274,22.6132674 C37.1074274,21.7362062 37.1640852,21.6218069 38.2216979,20.5731467 C38.844934,19.9630171 39.4303982,19.2956879 39.5437139,19.1050224 C39.7325733,18.7427579 39.7136873,18.7427579 38.7505043,19.0668893 C37.1451992,19.6388857 36.9185679,19.5626195 37.7117775,18.7046248 C38.2972417,18.0944953 38.9960216,16.9886354 38.9960216,16.6645041 C38.9960216,16.6073044 38.7127324,16.7026372 38.3916714,16.8742361 C38.0517245,17.0649016 37.2962868,17.3508998 36.7297085,17.5224988 L35.7098677,17.8466301 L34.7844565,17.217434 C34.2745361,16.8742361 33.5568703,16.4929051 33.1791515,16.3785058 C32.2159684,16.1115741 30.7428649,16.1497072 29.8741116,16.454772 C27.5133689,17.3127667 26.0213795,19.5244865 26.191353,21.9459382 Z" id="Combined-Shape"></path>
                </g>
            </g>
        </g>
    </g>
</svg>