<?xml version="1.0" encoding="UTF-8"?>
<svg width="54px" height="54px" viewBox="0 0 54 54" version="1.1" xmlns="http://www.w3.org/2000/svg" xmlns:xlink="http://www.w3.org/1999/xlink">
    <!-- Generator: Sketch 49.3 (51167) - http://www.bohemiancoding.com/sketch -->
    <title>social-vk</title>
    <desc>Created with Sketch.</desc>
    <defs></defs>
    <g id="secondary" stroke="none" stroke-width="1" fill="none" fill-rule="evenodd" opacity="0.9">
        <g id="desktop-copy-5" transform="translate(-452.000000, -5079.000000)" fill="#FFFFFF">
            <g id="Group-17" transform="translate(-204.000000, 4842.000000)">
                <g id="social-vk" transform="translate(656.000000, 237.000000)">
                    <path d="M0,27 C0,12.088311 12.088311,0 27,0 C41.911689,0 54,12.088311 54,27 C54,41.911689 41.911689,54 27,54 C12.088311,54 0,41.911689 0,27 Z M28.4123952,34.9605901 C28.4123952,34.9605901 28.932172,34.9039 29.1983991,34.6232148 C29.4420885,34.3660352 29.4336368,33.8807125 29.4336368,33.8807125 C29.4336368,33.8807125 29.4012388,31.6144904 30.4731903,31.2798804 C31.5296471,30.9508012 32.8861377,33.4714375 34.3257361,34.4407002 C35.4131823,35.1735237 36.2386273,35.0131322 36.2386273,35.0131322 L40.0855386,34.9605901 C40.0855386,34.9605901 42.0970324,34.8389138 41.1434041,33.2861576 C41.064522,33.1589505 40.5870035,32.1371456 38.2839276,30.0382285 C35.8709803,27.8411408 36.1949604,28.196491 39.0995123,24.3954877 C40.8687253,22.0808716 41.5758471,20.6677667 41.3546954,20.0635329 C41.1448127,19.4855703 39.8432579,19.6390484 39.8432579,19.6390484 L35.5131936,19.6653194 C35.5131936,19.6653194 35.1920307,19.6224562 34.9539758,19.7621074 C34.7215553,19.8989933 34.5708341,20.2183938 34.5708341,20.2183938 C34.5708341,20.2183938 33.8862501,22.0089719 32.9720628,23.5326917 C31.043677,26.7460536 30.2731678,26.9161239 29.9576394,26.7170172 C29.223754,26.251052 29.4068732,24.8476259 29.4068732,23.8507094 C29.4068732,20.7355183 29.8886175,19.4371763 28.4701482,19.1011836 C27.9996728,18.989186 27.6531549,18.9159037 26.4487942,18.9034595 C24.90355,18.88825 23.5963608,18.9089903 22.8554324,19.2643405 C22.3624192,19.5007798 21.9820948,20.0289658 22.2145153,20.0593849 C22.5004629,20.0967174 23.1484231,20.2308379 23.4921237,20.6898896 C23.9358356,21.2830618 23.9203409,22.6132056 23.9203409,22.6132056 C23.9203409,22.6132056 24.1752991,26.2800884 23.3244992,26.7349921 C22.7413351,27.0474791 21.9412451,26.4100609 20.2213334,23.4939765 C19.3409528,22.0006758 18.6760893,20.3497489 18.6760893,20.3497489 C18.6760893,20.3497489 18.5479058,20.04141 18.3183026,19.8754877 C18.0408066,19.6749982 17.6534391,19.6127774 17.6534391,19.6127774 L13.538892,19.6390484 C13.538892,19.6390484 12.9205126,19.6556406 12.6937265,19.9197336 C12.4922954,20.1534075 12.6782318,20.6387302 12.6782318,20.6387302 C12.6782318,20.6387302 15.8997208,28.0374821 19.5480183,31.7665858 C22.8934649,35.1845852 26.6910749,34.9605901 26.6910749,34.9605901 L28.4123952,34.9605901 Z" id="Combined-Shape"></path>
                </g>
            </g>
        </g>
    </g>
</svg>