<?xml version="1.0" encoding="UTF-8"?>
<svg width="54px" height="54px" viewBox="0 0 54 54" version="1.1" xmlns="http://www.w3.org/2000/svg" xmlns:xlink="http://www.w3.org/1999/xlink">
    <!-- Generator: Sketch 49.3 (51167) - http://www.bohemiancoding.com/sketch -->
    <title>social-telegram</title>
    <desc>Created with Sketch.</desc>
    <defs></defs>
    <g id="secondary" stroke="none" stroke-width="1" fill="none" fill-rule="evenodd" opacity="0.9">
        <g id="desktop-copy-5" transform="translate(-1072.000000, -5079.000000)" fill="#FFFFFF">
            <g id="Group-17" transform="translate(-204.000000, 4842.000000)">
                <g id="social-telegram" transform="translate(1276.000000, 237.000000)">
                    <path d="M22.5093859,32.4925351 L22.05,39.375 C22.725,39.375 23.0232375,39.0663 23.4,38.7 L26.6430495,35.5465398 L33.39,40.531275 C34.6316625,41.2163775 35.527815,40.861665 35.8371,39.3784875 L40.266225,18.5068125 C40.71969,16.6887675 39.5732025,15.8641875 38.38536,16.4034675 L12.37761,26.4319425 C10.6023375,27.144 10.6126875,28.1344275 12.054015,28.5757425 L18.72819,30.65886 L34.179615,20.910735 C34.9090425,20.4684075 35.5785075,20.7062123 35.029035,21.193875 L22.509,32.49225 Z M27,54 C12.0883118,54 0,41.9116882 0,27 C0,12.0883118 12.0883118,0 27,0 C41.9116882,0 54,12.0883118 54,27 C54,41.9116882 41.9116882,54 27,54 Z" id="Combined-Shape"></path>
                </g>
            </g>
        </g>
    </g>
</svg>