<?xml version="1.0" encoding="UTF-8"?>
<svg width="54px" height="54px" viewBox="0 0 54 54" version="1.1" xmlns="http://www.w3.org/2000/svg" xmlns:xlink="http://www.w3.org/1999/xlink">
    <!-- Generator: Sketch 49.3 (51167) - http://www.bohemiancoding.com/sketch -->
    <title>social-linkedin</title>
    <desc>Created with Sketch.</desc>
    <defs></defs>
    <g id="secondary" stroke="none" stroke-width="1" fill="none" fill-rule="evenodd" opacity="0.9">
        <g id="desktop-copy-5" transform="translate(-162.000000, -5079.000000)" fill="#FFFFFF">
            <g id="Group-17" transform="translate(-204.000000, 4842.000000)">
                <g id="social-linkedin" transform="translate(366.000000, 237.000000)">
                    <path d="M0,27 C0,12.088311 12.088311,0 27,0 C41.911689,0 54,12.088311 54,27 C54,41.911689 41.911689,54 27,54 C12.088311,54 0,41.911689 0,27 Z M19.0806097,22.3625793 L12.9618193,22.3625793 L12.9618193,40.7470047 L19.0806097,40.7470047 L19.0806097,22.3625793 Z M19.4836087,16.6755349 C19.4438953,14.8729537 18.1548607,13.5 16.061661,13.5 C13.9684614,13.5 12.6,14.8729537 12.6,16.6755349 C12.6,18.4407785 13.9280148,19.8532662 15.9822343,19.8532662 L16.0213367,19.8532662 C18.1548607,19.8532662 19.4836087,18.4407785 19.4836087,16.6755349 Z M41.1473088,30.2059371 C41.1473088,24.5590368 38.1287267,21.9308774 34.1022806,21.9308774 C30.8536054,21.9308774 29.3991187,23.7152779 28.587011,24.9670671 L28.587011,22.3630674 L22.4674874,22.3630674 C22.5481361,24.0881669 22.4674874,40.7474928 22.4674874,40.7474928 L28.587011,40.7474928 L28.587011,30.4801129 C28.587011,29.930663 28.6267244,29.3825553 28.7885105,28.9891673 C29.2307341,27.8914876 30.2376206,26.7550061 31.9280656,26.7550061 C34.1430937,26.7550061 35.0285184,28.4408155 35.0285184,30.9113268 L35.0285184,40.7470047 L41.1470644,40.7470047 L41.1473088,30.2059371 Z" id="Combined-Shape"></path>
                </g>
            </g>
        </g>
    </g>
</svg>