<?xml version="1.0" encoding="UTF-8"?>
<svg width="55px" height="54px" viewBox="0 0 55 54" version="1.1" xmlns="http://www.w3.org/2000/svg" xmlns:xlink="http://www.w3.org/1999/xlink">
    <!-- Generator: Sketch 49.3 (51167) - http://www.bohemiancoding.com/sketch -->
    <title>social-google-plus</title>
    <desc>Created with Sketch.</desc>
    <defs></defs>
    <g id="secondary" stroke="none" stroke-width="1" fill="none" fill-rule="evenodd" opacity="0.9">
        <g id="desktop-copy-5" transform="translate(-308.000000, -5182.000000)" fill="#FFFFFF">
            <g id="Group-17" transform="translate(-204.000000, 4842.000000)">
                <g id="social-google-plus" transform="translate(512.000000, 340.000000)">
                    <path d="M0,27 C0,12.088311 12.1278303,0 27.0882687,0 C42.0487072,0 54.1765375,12.088311 54.1765375,27 C54.1765375,41.911689 42.0487072,54 27.0882687,54 C12.1278303,54 0,41.911689 0,27 Z M22.1311475,26.2285714 L22.1311475,29.16 L27.0122951,29.16 C26.8155738,30.4180714 25.5368852,32.8487143 22.1311475,32.8487143 C19.192623,32.8487143 16.795082,30.4302857 16.795082,27.45 C16.795082,24.4697143 19.192623,22.0512857 22.1311475,22.0512857 C23.8032787,22.0512857 24.9221311,22.7597143 25.5614754,23.3704286 L27.897541,21.1352143 C26.397541,19.7427857 24.454918,18.9 22.1311475,18.9 C17.3729508,18.9 13.5245902,22.7230714 13.5245902,27.45 C13.5245902,32.1769286 17.3729508,36 22.1311475,36 C27.0983607,36 30.3934426,32.5311429 30.3934426,27.6454286 C30.3934426,27.0835714 30.3319672,26.6560714 30.2581967,26.2285714 L22.1311475,26.2285714 Z M40.5737705,26.2285714 L38.1147541,26.2285714 L38.1147541,23.7857143 L35.6557377,23.7857143 L35.6557377,26.2285714 L33.1967213,26.2285714 L33.1967213,28.6714286 L35.6557377,28.6714286 L35.6557377,31.1142857 L38.1147541,31.1142857 L38.1147541,28.6714286 L40.5737705,28.6714286 L40.5737705,26.2285714 Z" id="Combined-Shape"></path>
                </g>
            </g>
        </g>
    </g>
</svg>