<?xml version="1.0" encoding="UTF-8"?>
<svg width="2108px" height="2089px" viewBox="0 0 2108 2089" version="1.1" xmlns="http://www.w3.org/2000/svg" xmlns:xlink="http://www.w3.org/1999/xlink">
    <!-- Generator: Sketch 48.2 (47327) - http://www.bohemiancoding.com/sketch -->
    <title>Group 2</title>
    <desc>Created with Sketch.</desc>
    <defs></defs>
    <g id="Desktop-HD-Copy-3" stroke="none" stroke-width="1" fill="none" fill-rule="evenodd" transform="translate(-566.000000, -440.000000)">
        <g id="Group-2" transform="translate(260.000000, 117.000000)">
            <path d="M1596.26682,332.955676 C1596.26682,334.27009 1595.20021,335.335289 1593.88405,335.335289 C1592.56818,335.335289 1591.50156,334.27009 1591.50156,332.955676 C1591.50156,331.641553 1592.56818,330.576063 1593.88405,330.576063 C1595.20021,330.576063 1596.26682,331.641553 1596.26682,332.955676" id="Fill-39" fill="#9FC8BC" transform="translate(1593.884191, 332.955676) rotate(-21.000000) translate(-1593.884191, -332.955676) "></path>
            <path d="M1602.70879,332.955666 C1602.70879,337.822778 1598.75797,341.768638 1593.8841,341.768638 C1589.01081,341.768638 1585.0597,337.822778 1585.0597,332.955666 C1585.0597,328.088554 1589.01081,324.142985 1593.8841,324.142985 C1598.75797,324.142985 1602.70879,328.088554 1602.70879,332.955666 Z" id="Stroke-41" stroke="#FEFEFE" stroke-width="0.5" transform="translate(1593.884243, 332.955812) rotate(-21.000000) translate(-1593.884243, -332.955812) "></path>
            <path d="M1953.22947,490.360001 C2230.80726,679.729252 2413,998.293055 2413,1359.35549 C2413,1940.16282 1941.55581,2411 1360,2411 C778.444186,2411 307,1940.16282 307,1359.35549 C307,786.865865 765.03852,321.219179 1335.08459,308" id="Stroke-9" stroke="#FEFEFE" stroke-width="0.5" transform="translate(1360.000000, 1359.500000) rotate(-21.000000) translate(-1360.000000, -1359.500000) "></path>
        </g>
    </g>
</svg>