<?xml version="1.0" encoding="UTF-8"?>
<svg width="576px" height="379px" viewBox="0 0 576 379" version="1.1" xmlns="http://www.w3.org/2000/svg" xmlns:xlink="http://www.w3.org/1999/xlink">
    <!-- Generator: Sketch 49.3 (51167) - http://www.bohemiancoding.com/sketch -->
    <title>devices_bg-shapes2</title>
    <desc>Created with Sketch.</desc>
    <defs>
        <linearGradient x1="97.6811061%" y1="42.2609035%" x2="7.71200856%" y2="83.3015047%" id="linearGradient-1">
            <stop stop-color="#DAECB6" offset="0%"></stop>
            <stop stop-color="#66C8BF" offset="100%"></stop>
        </linearGradient>
        <linearGradient x1="-147.611371%" y1="13.3539698%" x2="100%" y2="34.0781242%" id="linearGradient-2">
            <stop stop-color="#DAECB6" offset="0%"></stop>
            <stop stop-color="#66C8BF" offset="100%"></stop>
        </linearGradient>
    </defs>
    <g id="Page-1" stroke="none" stroke-width="1" fill="none" fill-rule="evenodd" opacity="0.2">
        <g id="desktop" transform="translate(-331.000000, -4346.000000)">
            <g id="devices_bg-shapes2" transform="translate(608.000000, 4488.000000) rotate(-165.000000) translate(-608.000000, -4488.000000) translate(330.000000, 4275.000000)">
                <path d="M153.093777,10.3978774 L4,104.605476 L57.6851085,302.849391 L28.85486,420.89294 L175.743728,355.68792 C177.147924,357.062629 179.13529,357.845651 181.297608,357.616314 C183.842591,357.346352 186.019324,355.593564 186.959604,353.213049 C187.508702,351.822613 187.534912,350.500978 187.265605,349.288114 L349.780167,305.062163 C350.757142,308.069751 353.749659,310.177028 357.158258,309.77274 C360.159293,309.417595 362.63613,307.051495 363.112495,304.067497 C363.491883,301.692224 362.642682,299.498454 361.107436,298.00842 L421.321434,229.680489 C422.707938,230.791134 424.528217,231.381512 426.486097,231.139071 C429.533655,230.760337 432.004594,228.311676 432.42854,225.270671 C432.572694,224.234069 432.477028,223.236782 432.198548,222.319435 L541.783502,183.348572 C542.814207,185.851618 545.276628,187.618822 548.145959,187.618822 C552.20915,187.618822 555.459179,184.080483 554.979538,179.924246 C554.62767,176.882586 552.219634,174.385437 549.190424,173.935937 C546.587779,173.550651 544.211195,174.637052 542.751959,176.480919 L437.943761,101.574955 C438.699261,100.405993 439.117309,98.9978655 439.038024,97.4875193 C438.861763,94.1018539 436.132656,91.2751148 432.753543,90.9940135 C429.181132,90.696531 426.112606,93.1465026 425.429838,96.458125 L309.921443,78.2815507 C309.963379,73.7433044 306.877817,70.6570872 303.083932,70.6570872 C300.493738,70.6570872 298.235754,72.0960114 297.062205,74.215738 L165.240105,9.50280889 C165.786582,8.24604359 165.973983,6.79794592 165.650946,5.28432348 C165.078914,2.60698092 162.887766,0.485943751 160.192731,0.00302611425 C155.135529,-0.110331757 152.049312,2.97588544 152.049312,6.77042551 C152.049312,8.10254432 152.435908,9.34292842 153.093777,10.3978774 Z M163.497801,11.9003606 C164.07704,11.3840254 164.572408,10.7753001 164.950486,10.0912214 L296.773241,74.8034953 C296.408267,75.6422125 296.20383,76.5661119 296.20383,77.5371892 C296.20383,80.5388794 298.138777,83.0910696 300.825293,84.0287293 L281.452236,149.638037 C280.928693,149.509609 280.384837,149.434911 279.82198,149.434911 C278.303115,149.434911 276.902851,149.93552 275.763375,150.772271 L163.497801,11.9003606 Z M5.13423396,104.619892 L153.466613,10.9364911 C154.595605,12.4134197 156.303836,13.4251223 158.252543,13.6157994 L150.432815,167.30745 C150.425607,167.30745 150.4184,167.306139 150.411192,167.306139 C148.244943,167.306139 146.312617,168.314566 145.05061,169.883884 L5.13423396,104.619892 Z M162.988674,12.3125115 L275.253592,151.184422 C273.839567,152.445774 272.942533,154.275226 272.942533,156.315013 C272.942533,156.522071 272.955638,156.727163 272.973329,156.929635 L157.169418,172.922268 C156.614423,169.947443 154.143484,167.640316 151.086753,167.340868 L158.907135,13.649217 C158.914343,13.649217 158.922206,13.6498723 158.928758,13.6498723 C160.448278,13.6498723 161.848543,13.149263 162.988674,12.3125115 Z M309.821845,78.9289355 L425.329585,97.1055098 C425.30272,97.3499173 425.287649,97.5976009 425.287649,97.8498713 C425.287649,98.6027511 425.413457,99.3254894 425.638207,100.004326 L286.116945,153.548556 C285.350305,151.810839 283.885827,150.453166 282.081274,149.822817 L301.453676,84.2141644 C301.977874,84.3419377 302.521074,84.416636 303.083932,84.416636 C306.400797,84.416636 309.176426,82.0570886 309.821845,78.9289355 Z M286.185746,158.921588 C286.516647,158.116944 286.702737,157.237602 286.702737,156.315013 C286.702737,155.561478 286.576274,154.838739 286.351524,154.159903 L425.872785,100.615672 C426.852381,102.836962 428.970142,104.446251 431.484983,104.695245 L425.643449,217.433907 C425.63362,217.433907 425.625102,217.432597 425.614618,217.432597 C422.97659,217.432597 420.683223,218.927217 419.529331,221.113124 L286.185746,158.921588 Z M437.561096,102.107016 L542.370604,177.013636 C541.674731,178.088242 541.266512,179.365975 541.266512,180.73872 C541.266512,181.431972 541.371351,182.100324 541.563339,182.731983 L431.977729,221.702847 C431.030241,219.400961 428.871199,217.722217 426.297386,217.467325 L432.13892,104.728008 C432.148749,104.728008 432.157922,104.729973 432.167751,104.729973 C434.353003,104.729973 436.300399,103.701234 437.561096,102.107016 Z M4.96714577,105.309212 L144.664013,170.41398 C143.949793,171.49776 143.53109,172.793185 143.53109,174.186241 C143.53109,176.367561 144.553932,178.311026 146.142908,179.573034 L58.2584503,302.049334 L4.96714577,105.309212 Z M156.011595,178.167527 C156.813618,177.042467 157.290639,175.670378 157.290639,174.186241 C157.290639,173.978528 157.277534,173.774091 157.259842,173.570964 L273.063754,157.578986 C273.479181,159.803552 274.966593,161.65004 276.969031,162.567387 L245.70126,240.750246 C244.996869,240.505838 244.243334,240.36627 243.456381,240.36627 C241.381211,240.36627 239.522929,241.293446 238.260266,242.750062 L156.011595,178.167527 Z M283.288241,162.248282 C284.395609,161.598931 285.307059,160.653408 285.908577,159.515243 L419.250851,221.706123 C418.920606,222.511423 418.735171,223.39011 418.735171,224.312699 C418.735171,226.247646 419.540471,227.995847 420.830653,229.24606 L360.615345,297.575302 C359.437865,296.631089 357.946521,296.062334 356.322162,296.062334 C355.291457,296.062334 354.316448,296.296913 353.437106,296.704477 L283.288241,162.248282 Z M282.707036,162.552317 L352.857211,297.008512 C351.793089,297.632308 350.908504,298.529998 350.308297,299.609191 L249.760521,249.992516 C250.129425,249.149867 250.335828,248.222692 250.335828,247.246372 C250.335828,244.471398 248.681327,242.080399 246.30933,240.993343 L277.576445,162.811139 C278.282147,163.055547 279.035682,163.195115 279.82198,163.195115 C280.853995,163.195115 281.828348,162.960536 282.707036,162.552317 Z M151.889431,180.901876 C153.360462,180.578184 154.653922,179.782713 155.606652,178.683207 L237.855323,243.265087 C237.0533,244.390147 236.576279,245.762236 236.576279,247.246372 C236.576279,249.615749 237.780625,251.709265 239.608766,252.947028 L183.839314,344.733487 C182.86234,344.200115 181.742521,343.895425 180.552591,343.895425 C180.27018,343.895425 179.993665,343.917703 179.719771,343.951121 L151.889431,180.901876 Z M58.5329991,302.790419 L146.674969,179.955698 C147.751541,180.655503 149.033206,181.066343 150.411192,181.066343 C150.692949,181.066343 150.970118,181.044065 151.243357,181.011303 L179.073697,344.059237 C176.92645,344.532326 175.15466,346.009909 174.274662,347.973687 L58.5329991,302.790419 Z M249.470246,250.579618 L350.018022,300.196293 C349.649773,301.038942 349.442715,301.966117 349.442715,302.942436 C349.442715,303.45353 349.502998,303.950863 349.609148,304.429849 L187.094586,348.6558 C186.616255,347.183458 185.657627,345.926038 184.399551,345.074215 L240.169003,253.289068 C241.145978,253.822439 242.266451,254.126474 243.456381,254.126474 C246.041334,254.126474 248.294731,252.692792 249.470246,250.579618 Z M58.3285618,303.414215 L174.036807,348.583723 C173.803539,349.273043 173.671834,350.008887 173.671834,350.775527 C173.671834,352.463445 174.285146,354.009175 175.298159,355.207623 L29.5382835,420.126955 L58.3285618,303.414215 Z" id="Page-1" fill="url(#linearGradient-1)"></path>
                <circle id="Oval-12" fill="url(#linearGradient-2)" cx="6.5" cy="105.5" r="6.5"></circle>
                <circle id="Oval-12-Copy" fill="url(#linearGradient-2)" cx="59.5" cy="299.5" r="6.5"></circle>
                <circle id="Oval-12-Copy-2" fill="url(#linearGradient-2)" cx="30.5" cy="419.5" r="6.5"></circle>
            </g>
        </g>
    </g>
</svg>