<?xml version="1.0" encoding="UTF-8"?>
<svg width="732px" height="593px" viewBox="0 0 732 593" version="1.1" xmlns="http://www.w3.org/2000/svg" xmlns:xlink="http://www.w3.org/1999/xlink">
    <!-- Generator: Sketch 49.3 (51167) - http://www.bohemiancoding.com/sketch -->
    <title>devices-bg-mobile</title>
    <desc>Created with Sketch.</desc>
    <defs>
        <linearGradient x1="97.6811061%" y1="42.2609035%" x2="7.71200856%" y2="83.3015047%" id="linearGradient-1">
            <stop stop-color="#DAECB6" offset="0%"></stop>
            <stop stop-color="#66C8BF" offset="100%"></stop>
        </linearGradient>
        <linearGradient x1="-147.611371%" y1="13.3539698%" x2="100%" y2="34.0781242%" id="linearGradient-2">
            <stop stop-color="#DAECB6" offset="0%"></stop>
            <stop stop-color="#66C8BF" offset="100%"></stop>
        </linearGradient>
        <radialGradient cx="50%" cy="50%" fx="50%" fy="50%" r="63.9861241%" gradientTransform="translate(0.500000,0.500000),scale(0.836336,1.000000),scale(1.000000,0.779397),translate(-0.500000,-0.500000)" id="radialGradient-3">
            <stop stop-color="#75C9BA" stop-opacity="0.4" offset="0%"></stop>
            <stop stop-color="#181820" stop-opacity="0" offset="100%"></stop>
        </radialGradient>
    </defs>
    <g id="Page-1" stroke="none" stroke-width="1" fill="none" fill-rule="evenodd">
        <g id="Tablet" transform="translate(-36.000000, -5612.000000)">
            <g id="Group-14" transform="translate(-71.000000, 5503.000000)">
                <g id="devices-bg-mobile">
                    <g id="Group-49" opacity="0.3" transform="translate(135.000000, 109.000000)">
                        <path d="M122.530091,8.32318355 L3.20143885,83.7334916 L46.1688368,242.421696 L23.0942674,336.911954 L140.658199,284.717325 C141.782061,285.817739 143.372669,286.444523 145.103301,286.260946 C147.140203,286.04485 148.882373,284.641796 149.634935,282.736267 C150.074411,281.623265 150.095388,280.565337 149.879846,279.594476 L279.949954,244.192952 C280.731885,246.600434 283.126975,248.287245 285.85508,247.963625 C288.256988,247.679343 290.239348,245.785352 290.620612,243.396752 C290.924259,241.495418 290.244593,239.739373 289.015844,238.546646 L337.208702,183.852222 C338.318404,184.74126 339.775281,185.21384 341.34229,185.019773 C343.781432,184.716608 345.759073,182.75653 346.098382,180.322298 C346.213757,179.49253 346.13719,178.694232 345.914305,177.959923 L433.621688,146.764936 C434.446623,148.768549 436.417445,150.183141 438.713942,150.183141 C441.965957,150.183141 444.567149,147.350809 444.183263,144.023869 C443.901642,141.589112 441.974347,139.59022 439.549889,139.230409 C437.466838,138.922 435.564716,139.791631 434.396801,141.26759 L350.512542,81.3076519 C351.117215,80.3719334 351.451803,79.2447703 351.388347,78.0357842 C351.247274,75.3256624 349.063007,73.062944 346.358501,72.837931 C343.499287,72.5998053 341.043363,74.5609328 340.496903,77.2117855 L248.048637,62.6619925 C248.082201,59.0292648 245.612641,56.5588421 242.576169,56.5588421 C240.503081,56.5588421 238.695882,57.710657 237.756621,59.4074335 L132.251523,7.60670852 C132.688901,6.60070625 132.838889,5.44154826 132.580343,4.22993968 C132.122512,2.08680867 130.368805,0.388983144 128.211808,0.00242231211 C124.164227,-0.0883172047 121.694143,2.38210548 121.694143,5.41951901 C121.694143,6.48583946 122.003559,7.47872909 122.530091,8.32318355 Z M130.857053,9.52587553 C131.320653,9.1125649 131.717125,8.62529894 132.019723,8.0777148 L237.525345,59.8779153 C237.233236,60.5492828 237.069612,61.2888361 237.069612,62.0661538 C237.069612,64.4689152 238.618266,66.5118656 240.768445,67.2624335 L225.263031,119.780683 C224.844008,119.677879 224.408728,119.618086 223.958239,119.618086 C222.742601,119.618086 221.621886,120.018808 220.709895,120.688602 L130.857053,9.52587553 Z M4.10923402,83.7450307 L122.828494,8.75432738 C123.732094,9.93656363 125.099293,10.7464007 126.658959,10.8990319 L120.400365,133.924508 C120.394596,133.924508 120.388827,133.923459 120.383058,133.923459 C118.64928,133.923459 117.102724,134.730674 116.092664,135.986865 L4.10923402,83.7450307 Z M130.449568,9.85578973 L220.301886,121.018516 C219.170157,122.02819 218.452207,123.492611 218.452207,125.125397 C218.452207,125.291141 218.462696,125.455312 218.476855,125.617384 L125.79207,138.418999 C125.347875,136.037742 123.370234,134.190957 120.92375,133.951258 L127.182869,10.9257817 C127.188638,10.9257817 127.194931,10.9263062 127.200175,10.9263062 C128.416338,10.9263062 129.537053,10.5255837 130.449568,9.85578973 Z M247.968923,63.1802043 L340.416664,77.7299973 C340.395162,77.925638 340.3831,78.1239012 340.3831,78.325836 C340.3831,78.9284932 340.483792,79.5070232 340.663673,80.0504113 L228.996476,122.910934 C228.382888,121.519944 227.210778,120.433168 225.766487,119.928593 L241.271377,67.4108687 C241.690924,67.5131473 242.12568,67.572941 242.576169,67.572941 C245.230853,67.572941 247.452356,65.6841953 247.968923,63.1802043 Z M229.051542,127.211882 C229.316381,126.567789 229.46532,125.863902 229.46532,125.125397 C229.46532,124.522216 229.364104,123.943686 229.184223,123.400298 L340.85142,80.5397753 C341.635449,82.3178502 343.330419,83.6060367 345.343197,83.8053489 L340.667868,174.049208 C340.660002,174.049208 340.653184,174.048159 340.644793,174.048159 C338.533422,174.048159 336.697903,175.244557 335.774375,176.994308 L229.051542,127.211882 Z M350.206273,81.7335507 L434.091581,141.694014 C433.534632,142.554203 433.20791,143.57699 433.20791,144.675829 C433.20791,145.230757 433.291819,145.765753 433.445478,146.271376 L345.737571,177.466363 C344.97924,175.623774 343.25123,174.27999 341.191253,174.075957 L345.866582,83.8315742 C345.874448,83.8315742 345.88179,83.8331477 345.889657,83.8331477 C347.638644,83.8331477 349.197262,83.0096735 350.206273,81.7335507 Z M3.97550336,84.2968109 L115.783248,136.41119 C115.211615,137.278723 114.876502,138.315671 114.876502,139.430771 C114.876502,141.176851 115.695143,142.732535 116.966896,143.742734 L46.6277165,241.781274 L3.97550336,84.2968109 Z M124.865395,142.617668 C125.507303,141.717092 125.88909,140.618777 125.88909,139.430771 C125.88909,139.264502 125.878602,139.100857 125.864442,138.93826 L218.549227,126.137169 C218.881718,127.917867 220.072184,129.395924 221.674854,130.130232 L196.64939,192.713225 C196.085624,192.517584 195.482524,192.405864 194.852679,192.405864 C193.191797,192.405864 191.704502,193.14804 190.693918,194.314017 L124.865395,142.617668 Z M226.732495,129.874798 C227.618788,129.355013 228.348276,128.598151 228.829706,127.687084 L335.55149,177.468986 C335.287176,178.113604 335.138761,178.816966 335.138761,179.55547 C335.138761,181.104336 335.78329,182.503718 336.815901,183.504475 L288.621994,238.199948 C287.679586,237.444135 286.485975,236.988864 285.185903,236.988864 C284.360968,236.988864 283.58061,237.176637 282.87682,237.50288 L226.732495,129.874798 Z M226.267322,130.118169 L282.412696,237.74625 C281.561015,238.24558 280.853029,238.964153 280.372648,239.828014 L199.898258,200.11138 C200.193515,199.436866 200.358711,198.69469 200.358711,197.913176 C200.358711,195.691894 199.034516,193.777972 197.136065,192.907816 L222.161004,130.325349 C222.725819,130.520989 223.328918,130.632709 223.958239,130.632709 C224.784223,130.632709 225.564056,130.444936 226.267322,130.118169 Z M121.566181,144.806431 C122.743536,144.547326 123.778768,143.910575 124.541295,143.030455 L190.369818,194.726278 C189.727911,195.626855 189.346123,196.72517 189.346123,197.913176 C189.346123,199.809789 190.310032,201.485586 191.773203,202.476377 L147.137581,275.948636 C146.35565,275.521688 145.459392,275.277793 144.50702,275.277793 C144.280989,275.277793 144.059678,275.295626 143.840465,275.322376 L121.566181,144.806431 Z M46.8474543,242.37449 L117.392736,144.049045 C118.254381,144.609217 119.280174,144.938082 120.383058,144.938082 C120.608565,144.938082 120.830401,144.920249 121.049089,144.894024 L143.323373,275.408919 C141.604803,275.787613 140.186733,276.970373 139.482418,278.542318 L46.8474543,242.37449 Z M199.665934,200.581337 L280.140324,240.297971 C279.845592,240.972486 279.679871,241.714662 279.679871,242.496176 C279.679871,242.90529 279.728119,243.30339 279.813077,243.686804 L149.742969,279.088328 C149.360132,277.909763 148.592885,276.903237 147.585972,276.221379 L192.221594,202.750169 C193.003525,203.177117 193.900307,203.420488 194.852679,203.420488 C196.921571,203.420488 198.7251,202.272869 199.665934,200.581337 Z M46.6838309,242.87382 L139.292049,279.030633 C139.10535,279.582413 138.999939,280.171433 138.999939,280.785105 C138.999939,282.136232 139.490809,283.373541 140.301584,284.332862 L23.6412521,336.298807 L46.6838309,242.87382 Z" id="Page-1" fill="url(#linearGradient-1)"></path>
                        <ellipse id="Oval-12" fill="url(#linearGradient-2)" cx="5.20233813" cy="84.4495305" rx="5.20233813" ry="5.20305164"></ellipse>
                        <ellipse id="Oval-12-Copy" fill="url(#linearGradient-2)" cx="47.6214029" cy="239.74061" rx="5.20233813" ry="5.20305164"></ellipse>
                        <ellipse id="Oval-12-Copy-2" fill="url(#linearGradient-2)" cx="24.4109712" cy="335.796948" rx="5.20233813" ry="5.20305164"></ellipse>
                    </g>
                    <g id="Group-49-Copy" opacity="0.2" transform="translate(649.500000, 495.500000) rotate(-165.000000) translate(-649.500000, -495.500000) translate(427.000000, 325.000000)">
                        <path d="M122.530091,8.32318355 L3.20143885,83.7334916 L46.1688368,242.421696 L23.0942674,336.911954 L140.658199,284.717325 C141.782061,285.817739 143.372669,286.444523 145.103301,286.260946 C147.140203,286.04485 148.882373,284.641796 149.634935,282.736267 C150.074411,281.623265 150.095388,280.565337 149.879846,279.594476 L279.949954,244.192952 C280.731885,246.600434 283.126975,248.287245 285.85508,247.963625 C288.256988,247.679343 290.239348,245.785352 290.620612,243.396752 C290.924259,241.495418 290.244593,239.739373 289.015844,238.546646 L337.208702,183.852222 C338.318404,184.74126 339.775281,185.21384 341.34229,185.019773 C343.781432,184.716608 345.759073,182.75653 346.098382,180.322298 C346.213757,179.49253 346.13719,178.694232 345.914305,177.959923 L433.621688,146.764936 C434.446623,148.768549 436.417445,150.183141 438.713942,150.183141 C441.965957,150.183141 444.567149,147.350809 444.183263,144.023869 C443.901642,141.589112 441.974347,139.59022 439.549889,139.230409 C437.466838,138.922 435.564716,139.791631 434.396801,141.26759 L350.512542,81.3076519 C351.117215,80.3719334 351.451803,79.2447703 351.388347,78.0357842 C351.247274,75.3256624 349.063007,73.062944 346.358501,72.837931 C343.499287,72.5998053 341.043363,74.5609328 340.496903,77.2117855 L248.048637,62.6619925 C248.082201,59.0292648 245.612641,56.5588421 242.576169,56.5588421 C240.503081,56.5588421 238.695882,57.710657 237.756621,59.4074335 L132.251523,7.60670852 C132.688901,6.60070625 132.838889,5.44154826 132.580343,4.22993968 C132.122512,2.08680867 130.368805,0.388983144 128.211808,0.00242231211 C124.164227,-0.0883172047 121.694143,2.38210548 121.694143,5.41951901 C121.694143,6.48583946 122.003559,7.47872909 122.530091,8.32318355 Z M130.857053,9.52587553 C131.320653,9.1125649 131.717125,8.62529894 132.019723,8.0777148 L237.525345,59.8779153 C237.233236,60.5492828 237.069612,61.2888361 237.069612,62.0661538 C237.069612,64.4689152 238.618266,66.5118656 240.768445,67.2624335 L225.263031,119.780683 C224.844008,119.677879 224.408728,119.618086 223.958239,119.618086 C222.742601,119.618086 221.621886,120.018808 220.709895,120.688602 L130.857053,9.52587553 Z M4.10923402,83.7450307 L122.828494,8.75432738 C123.732094,9.93656363 125.099293,10.7464007 126.658959,10.8990319 L120.400365,133.924508 C120.394596,133.924508 120.388827,133.923459 120.383058,133.923459 C118.64928,133.923459 117.102724,134.730674 116.092664,135.986865 L4.10923402,83.7450307 Z M130.449568,9.85578973 L220.301886,121.018516 C219.170157,122.02819 218.452207,123.492611 218.452207,125.125397 C218.452207,125.291141 218.462696,125.455312 218.476855,125.617384 L125.79207,138.418999 C125.347875,136.037742 123.370234,134.190957 120.92375,133.951258 L127.182869,10.9257817 C127.188638,10.9257817 127.194931,10.9263062 127.200175,10.9263062 C128.416338,10.9263062 129.537053,10.5255837 130.449568,9.85578973 Z M247.968923,63.1802043 L340.416664,77.7299973 C340.395162,77.925638 340.3831,78.1239012 340.3831,78.325836 C340.3831,78.9284932 340.483792,79.5070232 340.663673,80.0504113 L228.996476,122.910934 C228.382888,121.519944 227.210778,120.433168 225.766487,119.928593 L241.271377,67.4108687 C241.690924,67.5131473 242.12568,67.572941 242.576169,67.572941 C245.230853,67.572941 247.452356,65.6841953 247.968923,63.1802043 Z M229.051542,127.211882 C229.316381,126.567789 229.46532,125.863902 229.46532,125.125397 C229.46532,124.522216 229.364104,123.943686 229.184223,123.400298 L340.85142,80.5397753 C341.635449,82.3178502 343.330419,83.6060367 345.343197,83.8053489 L340.667868,174.049208 C340.660002,174.049208 340.653184,174.048159 340.644793,174.048159 C338.533422,174.048159 336.697903,175.244557 335.774375,176.994308 L229.051542,127.211882 Z M350.206273,81.7335507 L434.091581,141.694014 C433.534632,142.554203 433.20791,143.57699 433.20791,144.675829 C433.20791,145.230757 433.291819,145.765753 433.445478,146.271376 L345.737571,177.466363 C344.97924,175.623774 343.25123,174.27999 341.191253,174.075957 L345.866582,83.8315742 C345.874448,83.8315742 345.88179,83.8331477 345.889657,83.8331477 C347.638644,83.8331477 349.197262,83.0096735 350.206273,81.7335507 Z M3.97550336,84.2968109 L115.783248,136.41119 C115.211615,137.278723 114.876502,138.315671 114.876502,139.430771 C114.876502,141.176851 115.695143,142.732535 116.966896,143.742734 L46.6277165,241.781274 L3.97550336,84.2968109 Z M124.865395,142.617668 C125.507303,141.717092 125.88909,140.618777 125.88909,139.430771 C125.88909,139.264502 125.878602,139.100857 125.864442,138.93826 L218.549227,126.137169 C218.881718,127.917867 220.072184,129.395924 221.674854,130.130232 L196.64939,192.713225 C196.085624,192.517584 195.482524,192.405864 194.852679,192.405864 C193.191797,192.405864 191.704502,193.14804 190.693918,194.314017 L124.865395,142.617668 Z M226.732495,129.874798 C227.618788,129.355013 228.348276,128.598151 228.829706,127.687084 L335.55149,177.468986 C335.287176,178.113604 335.138761,178.816966 335.138761,179.55547 C335.138761,181.104336 335.78329,182.503718 336.815901,183.504475 L288.621994,238.199948 C287.679586,237.444135 286.485975,236.988864 285.185903,236.988864 C284.360968,236.988864 283.58061,237.176637 282.87682,237.50288 L226.732495,129.874798 Z M226.267322,130.118169 L282.412696,237.74625 C281.561015,238.24558 280.853029,238.964153 280.372648,239.828014 L199.898258,200.11138 C200.193515,199.436866 200.358711,198.69469 200.358711,197.913176 C200.358711,195.691894 199.034516,193.777972 197.136065,192.907816 L222.161004,130.325349 C222.725819,130.520989 223.328918,130.632709 223.958239,130.632709 C224.784223,130.632709 225.564056,130.444936 226.267322,130.118169 Z M121.566181,144.806431 C122.743536,144.547326 123.778768,143.910575 124.541295,143.030455 L190.369818,194.726278 C189.727911,195.626855 189.346123,196.72517 189.346123,197.913176 C189.346123,199.809789 190.310032,201.485586 191.773203,202.476377 L147.137581,275.948636 C146.35565,275.521688 145.459392,275.277793 144.50702,275.277793 C144.280989,275.277793 144.059678,275.295626 143.840465,275.322376 L121.566181,144.806431 Z M46.8474543,242.37449 L117.392736,144.049045 C118.254381,144.609217 119.280174,144.938082 120.383058,144.938082 C120.608565,144.938082 120.830401,144.920249 121.049089,144.894024 L143.323373,275.408919 C141.604803,275.787613 140.186733,276.970373 139.482418,278.542318 L46.8474543,242.37449 Z M199.665934,200.581337 L280.140324,240.297971 C279.845592,240.972486 279.679871,241.714662 279.679871,242.496176 C279.679871,242.90529 279.728119,243.30339 279.813077,243.686804 L149.742969,279.088328 C149.360132,277.909763 148.592885,276.903237 147.585972,276.221379 L192.221594,202.750169 C193.003525,203.177117 193.900307,203.420488 194.852679,203.420488 C196.921571,203.420488 198.7251,202.272869 199.665934,200.581337 Z M46.6838309,242.87382 L139.292049,279.030633 C139.10535,279.582413 138.999939,280.171433 138.999939,280.785105 C138.999939,282.136232 139.490809,283.373541 140.301584,284.332862 L23.6412521,336.298807 L46.6838309,242.87382 Z" id="Page-1" fill="url(#linearGradient-1)"></path>
                        <ellipse id="Oval-12" fill="url(#linearGradient-2)" cx="5.20233813" cy="84.4495305" rx="5.20233813" ry="5.20305164"></ellipse>
                        <ellipse id="Oval-12-Copy" fill="url(#linearGradient-2)" cx="47.6214029" cy="239.74061" rx="5.20233813" ry="5.20305164"></ellipse>
                    </g>
                    <ellipse id="Oval-Copy" fill="url(#radialGradient-3)" fill-rule="nonzero" transform="translate(428.000000, 408.500000) rotate(-30.000000) translate(-428.000000, -408.500000) " cx="428" cy="408.5" rx="333" ry="278.5"></ellipse>
                </g>
            </g>
        </g>
    </g>
</svg>