<?xml version="1.0" encoding="UTF-8"?>
<svg width="802px" height="780px" viewBox="0 0 802 780" version="1.1" xmlns="http://www.w3.org/2000/svg" xmlns:xlink="http://www.w3.org/1999/xlink">
    <!-- Generator: Sketch 49.3 (51167) - http://www.bohemiancoding.com/sketch -->
    <title>hero-oval</title>
    <desc>Created with Sketch.</desc>
    <defs>
        <linearGradient x1="0%" y1="50%" x2="100%" y2="50%" id="linearGradient-1">
            <stop stop-color="#302D69" offset="0%"></stop>
            <stop stop-color="#412D67" offset="100%"></stop>
        </linearGradient>
        <radialGradient cx="50%" cy="50%" fx="50%" fy="50%" r="63.9706637%" gradientTransform="translate(0.500000,0.500000),scale(0.836538,1.000000),scale(1.000000,0.779397),translate(-0.500000,-0.500000)" id="radialGradient-2">
            <stop stop-color="#75C9BA" stop-opacity="0.4" offset="0%"></stop>
            <stop stop-color="#181820" stop-opacity="0" offset="100%"></stop>
        </radialGradient>
    </defs>
    <g id="Page-1" stroke="none" stroke-width="1" fill="none" fill-rule="evenodd">
        <g id="desktop" transform="translate(-3.000000, -214.000000)">
            <g id="hero-oval" transform="translate(-131.000000, 117.000000)">
                <circle id="Oval-5" fill="url(#linearGradient-1)" cx="593.5" cy="415.5" r="318.5"></circle>
                <path d="M637.179641,514.618354 C655.095898,514.618354 669.211525,521.067007 679.526946,533.964507 C689.842367,546.862008 695,564.805103 695,587.794332 C695,608.973385 691.018669,627.708421 683.055888,644 L643.966068,644 C649.938154,630.604701 654.145696,619.268647 656.588822,609.991498 C659.031948,600.714349 660.253493,592.229278 660.253493,584.536032 C660.253493,575.304137 658.48904,568.221932 654.96008,563.289204 C651.43112,558.356476 646.183002,555.890148 639.215569,555.890148 C635.324665,555.890148 631.863621,556.976237 628.832335,559.148448 C625.801049,561.320659 622.882915,564.511045 620.077844,568.719703 C617.272774,572.928361 612.793777,581.503939 606.640719,594.446694 C600.940091,606.574869 595.465761,615.670865 590.217565,621.734953 C584.969368,627.799041 578.861645,632.641187 571.894212,636.261538 C564.926778,639.881889 556.783147,641.692038 547.463074,641.692038 C529.908761,641.692038 516.109831,635.741175 506.065868,623.839271 C496.021906,611.937367 491,595.487644 491,574.489609 C491,564.171608 492.221545,554.328927 494.664671,544.961269 C497.107797,535.59361 500.546219,525.796182 504.98004,515.568691 L537.690619,529.144939 C533.347284,539.734466 530.316043,548.491058 528.596806,555.41498 C526.87757,562.338901 526.017964,569.149584 526.017964,575.847233 C526.017964,583.812006 527.872902,589.921256 531.582834,594.175169 C535.292766,598.429081 540.133703,600.556005 546.105788,600.556005 C549.81572,600.556005 553.050552,599.696185 555.810379,597.976518 C558.570207,596.256852 561.239508,593.519002 563.818363,589.762888 C566.397218,586.006774 571.034564,577.11442 577.730539,563.08556 C586.598181,544.531261 595.488312,531.814969 604.401198,524.936302 C613.314083,518.057635 624.240122,514.618354 637.179641,514.618354 Z M581.938124,436.554926 L528.325349,436.554926 L528.325349,423.793252 C528.325349,410.216936 530.316015,400.19324 534.297405,393.721862 C538.278796,387.250485 544.97467,384.014845 554.38523,384.014845 C563.886275,384.014845 570.853604,387.182604 575.287425,393.518219 C579.721246,399.853833 581.938124,409.673888 581.938124,422.978677 L581.938124,436.554926 Z M616.141717,436.554926 L692.285429,436.554926 L692.285429,478.641296 L493.850299,478.641296 L493.850299,420.806478 C493.850299,393.834863 498.759099,373.877977 508.576846,360.935223 C518.394593,347.992468 533.301963,341.521188 553.299401,341.521188 C564.972114,341.521188 575.355244,344.734201 584.449102,351.160324 C593.54296,357.586447 600.668637,366.682442 605.826347,378.448583 C650.436018,348.580687 679.255424,329.121593 692.285429,320.070715 L692.285429,366.773009 L616.141717,414.154116 L616.141717,436.554926 Z M580.852295,219.74224 L580.852295,141 L683.734531,141 C687.896894,153.761737 690.815028,165.776597 692.489022,177.044939 C694.163016,188.313282 695,199.830351 695,211.596491 C695,241.554896 686.200354,264.430645 668.600798,280.224426 C651.001243,296.018208 625.733365,303.91498 592.796407,303.91498 C560.764311,303.91498 535.790509,294.751104 517.874251,276.423077 C499.957994,258.09505 491,232.685093 491,200.192443 C491,179.827968 495.071816,160.187859 503.215569,141.271525 L536.876248,155.255061 C529.637356,169.736465 526.017964,184.80595 526.017964,200.463968 C526.017964,218.656231 532.125687,233.227925 544.341317,244.179487 C556.556947,255.131049 572.979937,260.606748 593.610778,260.606748 C615.146482,260.606748 631.592092,256.194511 642.948104,247.369906 C654.304115,238.5453 659.982036,225.715874 659.982036,208.881242 C659.982036,200.10189 659.077188,191.18691 657.267465,182.136032 L615.870259,182.136032 L615.870259,219.74224 L580.852295,219.74224 Z" id="SRG" fill="#0B1821" opacity="0.07"></path>
                <ellipse id="Oval-Copy" fill="url(#radialGradient-2)" fill-rule="nonzero" transform="translate(535.000000, 510.000000) rotate(-30.000000) translate(-535.000000, -510.000000) " cx="535" cy="510" rx="416" ry="348"></ellipse>
            </g>
        </g>
    </g>
</svg>