<svg width="308" height="523" xmlns="http://www.w3.org/2000/svg">
  <defs>
    <linearGradient x1="0%" y1="7.918%" x2="34.589%" y2="100%" id="a">
      <stop stop-color="#CEE4B3" offset="0%"/>
      <stop stop-color="#6FC7BB" offset="100%"/>
    </linearGradient>
    <linearGradient x1="100%" y1="50%" x2="0%" y2="50%" id="b">
      <stop stop-color="#CEE4B3" offset="0%"/>
      <stop stop-color="#6FC7BB" offset="100%"/>
    </linearGradient>
    <linearGradient x1="0%" y1="50%" y2="50%" id="c">
      <stop stop-color="#C2E5B8" offset="0%"/>
      <stop stop-color="#71CBBE" offset="100%"/>
    </linearGradient>
  </defs>
  <g fill="none" fill-rule="evenodd" opacity=".2">
    <g class="anim">
      <path d="M36.157 18.154c0 10.025-8.094 18.153-18.079 18.153C8.094 36.307 0 28.179 0 18.154 0 8.128 8.094 0 18.078 0c9.985 0 18.08 8.128 18.08 18.154z" stroke="url(#a)" stroke-width="2.08" stroke-linecap="round" stroke-linejoin="round" transform="translate(132.132 282.883)"/>
      <path fill="url(#b)" d="M24.978 25.991v-1.926h-9.27l.826-4.197 4.057-1.648-.705-1.79-2.908 1.183 1.346-6.84-1.858-.377-1.59 8.07-4.469 1.816.706 1.79 3.32-1.35-1.038 5.269z" transform="translate(132.132 282.883)"/>
    </g>
    <g class="">
      <path d="M36.426 18.06c0 9.974-8.095 18.06-18.079 18.06S.268 28.033.268 18.06C.268 8.085 8.363 0 18.348 0c9.983 0 18.078 8.086 18.078 18.06z" stroke="url(#a)" stroke-width="2.08" stroke-linecap="round" stroke-linejoin="round" transform="translate(208.106 97.827)"/>
      <path d="M14.23 18.692l3.908 1.952a.467.467 0 0 0 .418 0l3.908-1.953-4.117 9.401-4.117-9.4zm-.082-1.078l4.2-9.588 4.198 9.588a.47.47 0 0 0-.069.028l-4.13 2.064-4.13-2.064a.47.47 0 0 0-.069-.028z" fill="url(#b)" transform="translate(208.106 97.827)"/>
    </g>
    <g class="anim" opacity=".6" stroke-linecap="round" stroke-linejoin="round">
      <path d="M24.793 12.808c0 6.962-5.55 12.606-12.397 12.606C5.55 25.414 0 19.77 0 12.808 0 5.845 5.55.201 12.396.201c6.847 0 12.397 5.644 12.397 12.607z" stroke="url(#a)" stroke-width="1.456" transform="translate(203.943 1.14)"/>
      <path d="M13.545 16.702h-3.063v-3.115h3.063c.847 0 1.532.697 1.532 1.557s-.685 1.558-1.532 1.558zm1.532-6.23c0 .86-.685 1.557-1.532 1.557h-3.063V8.913h3.063c.847 0 1.532.698 1.532 1.558zm.49 2.336a3.127 3.127 0 0 0 1.042-2.336 3.104 3.104 0 0 0-2.298-3.013v-1.66H12.78v1.557h-1.532V5.8H9.716v1.557H8.184v1.558h.767v7.788h-.767v1.558h1.532v1.557h1.532V18.26h1.532v1.557h1.531v-1.66a3.105 3.105 0 0 0 2.298-3.013c0-.931-.405-1.765-1.042-2.336z" fill="url(#c)" transform="translate(203.943 1.14)"/>
    </g>
    <g class="" opacity=".6">
      <path d="M24.793 12.448c0 6.875-5.55 12.448-12.397 12.448C5.55 24.896 0 19.323 0 12.448S5.55 0 12.396 0c6.847 0 12.397 5.573 12.397 12.448z" stroke="url(#a)" stroke-width="1.456" stroke-linecap="round" stroke-linejoin="round" transform="translate(232.043 497.049)"/>
      <path fill="url(#b)" d="M17.127 17.822v-1.32h-6.356l.567-2.878 2.782-1.13-.484-1.227-1.994.81.923-4.69-1.274-.258-1.09 5.534-3.065 1.245.484 1.227 2.277-.926-.712 3.613z" transform="translate(232.043 497.049)"/>
    </g>
    <g class="anim" opacity=".6">
      <path d="M24.793 12.448c0 6.875-5.55 12.448-12.397 12.448C5.55 24.896 0 19.323 0 12.448S5.55 0 12.396 0c6.847 0 12.397 5.573 12.397 12.448z" stroke="url(#a)" stroke-width="1.456" stroke-linecap="round" stroke-linejoin="round" transform="translate(276.794 319.27)"/>
      <path fill="url(#b)" d="M17.127 17.822v-1.32h-6.356l.567-2.878 2.782-1.13-.484-1.227-1.994.81.923-4.69-1.274-.258-1.09 5.534-3.065 1.245.484 1.227 2.277-.926-.712 3.613z" transform="translate(276.794 319.27)"/>
    </g>
    <g class="" opacity=".6" stroke-linecap="round" stroke-linejoin="round">
      <path d="M24.793 12.808c0 6.962-5.55 12.606-12.397 12.606C5.55 25.414 0 19.77 0 12.808 0 5.845 5.55.201 12.396.201c6.847 0 12.397 5.644 12.397 12.607z" stroke="url(#a)" stroke-width="1.456" transform="translate(72.81 191.395)"/>
      <path d="M13.545 16.702h-3.063v-3.115h3.063c.847 0 1.532.697 1.532 1.557s-.685 1.558-1.532 1.558zm1.532-6.23c0 .86-.685 1.557-1.532 1.557h-3.063V8.913h3.063c.847 0 1.532.698 1.532 1.558zm.49 2.336a3.127 3.127 0 0 0 1.042-2.336 3.104 3.104 0 0 0-2.298-3.013v-1.66H12.78v1.557h-1.532V5.8H9.716v1.557H8.184v1.558h.767v7.788h-.767v1.558h1.532v1.557h1.532V18.26h1.532v1.557h1.531v-1.66a3.105 3.105 0 0 0 2.298-3.013c0-.931-.405-1.765-1.042-2.336z" fill="url(#c)" transform="translate(72.81 191.395)"/>
    </g>
    <g class="anim" opacity=".6">
      <path d="M24.793 12.448c0 6.875-5.55 12.448-12.397 12.448C5.55 24.896 0 19.323 0 12.448S5.55 0 12.396 0c6.847 0 12.397 5.573 12.397 12.448z" stroke="url(#a)" stroke-width="1.456" stroke-linecap="round" stroke-linejoin="round" transform="translate(1 344.222)"/>
      <path fill="url(#b)" d="M17.127 17.822v-1.32h-6.356l.567-2.878 2.782-1.13-.484-1.227-1.994.81.923-4.69-1.274-.258-1.09 5.534-3.065 1.245.484 1.227 2.277-.926-.712 3.613z" transform="translate(1 344.222)"/>
    </g>
    <g class="" opacity=".6">
      <path d="M24.978 12.383c0 6.84-5.55 12.384-12.397 12.384S.184 19.223.184 12.383C.184 5.544 5.734 0 12.581 0c6.846 0 12.397 5.544 12.397 12.383z" stroke="url(#a)" stroke-width="1.456" stroke-linecap="round" stroke-linejoin="round" transform="translate(237.246 389.966)"/>
      <path d="M9.758 12.817l2.68 1.34a.32.32 0 0 0 .286 0l2.68-1.34-2.823 6.446-2.823-6.446zm-.056-.739l2.879-6.574 2.88 6.574a.323.323 0 0 0-.048.02l-2.832 1.414-2.832-1.415a.323.323 0 0 0-.047-.019z" fill="url(#b)" transform="translate(237.246 389.966)"/>
    </g>
    <g class="anim" opacity=".6">
      <path d="M24.793 12.383c0 6.84-5.55 12.384-12.396 12.384C5.55 24.767 0 19.223 0 12.383 0 5.544 5.55 0 12.397 0c6.846 0 12.396 5.544 12.396 12.383z" stroke="url(#a)" stroke-width="1.456" stroke-linecap="round" stroke-linejoin="round" transform="translate(228.92 204.91)"/>
      <g transform="translate(235.343 213.465)" fill="url(#b)">
        <path d="M10.766 6.54l1.323-4.658.025-.12c.008-.065.012-.13.012-.194C12.126.702 11.442 0 10.597 0h-7.54v1.568h7.53L9.288 6.152l-.028.121H1.528v1.569H9.26c.744 0 1.38-.55 1.506-1.302z"/>
        <path d="M0 3.137h4.585v1.568H0z"/>
      </g>
    </g>
    <g class="" opacity=".4" stroke-linecap="round" stroke-linejoin="round">
      <path d="M17.562 8.71c0 4.734-3.931 8.572-8.781 8.572C3.93 17.282 0 13.444 0 8.71 0 3.975 3.931.137 8.78.137c4.85 0 8.782 3.838 8.782 8.573z" stroke="url(#a)" stroke-width="1.019" transform="translate(76.974 406.6)"/>
      <path d="M9.595 11.357h-2.17V9.24h2.17c.599 0 1.085.474 1.085 1.06 0 .584-.486 1.058-1.085 1.058zM10.68 7.12c0 .586-.486 1.06-1.085 1.06h-2.17V6.061h2.17c.6 0 1.085.475 1.085 1.06zm.346 1.59a2.09 2.09 0 0 0 .739-1.59c0-.986-.693-1.813-1.628-2.048V3.943H9.052v1.06H7.967v-1.06H6.882v1.06H5.797v1.059h.543v5.295h-.543v1.06h1.085v1.058h1.085v-1.058h1.085v1.058h1.085v-1.128c.935-.235 1.628-1.062 1.628-2.049 0-.633-.287-1.2-.739-1.589z" fill="url(#c)" transform="translate(76.974 406.6)"/>
    </g>
    <g class="anim" opacity=".4">
      <path d="M17.562 8.818c0 4.869-3.931 8.817-8.781 8.817C3.93 17.635 0 13.687 0 8.818 0 3.948 3.931 0 8.78 0c4.85 0 8.782 3.948 8.782 8.818z" stroke="url(#a)" stroke-width="1.019" stroke-linecap="round" stroke-linejoin="round" transform="translate(232.043 301.596)"/>
      <path fill="url(#b)" d="M12.132 12.624v-.935H7.629l.402-2.039 1.97-.8-.342-.87-1.413.575.654-3.322-.902-.183-.772 3.92-2.171.881.343.87 1.612-.656-.504 2.56z" transform="translate(232.043 301.596)"/>
    </g>
    <g class="" opacity=".4">
      <path d="M17.562 8.772c0 4.844-3.931 8.772-8.78 8.772C3.931 17.544 0 13.616 0 8.772 0 3.927 3.931 0 8.781 0c4.85 0 8.781 3.927 8.781 8.772z" stroke="url(#a)" stroke-width="1.019" stroke-linecap="round" stroke-linejoin="round" transform="translate(301.772 162.285)"/>
      <g transform="translate(306.321 168.344)" fill="url(#b)">
        <path d="M7.626 4.633l.937-3.3.018-.085c.005-.046.008-.091.008-.137C8.59.497 8.104 0 7.507 0H2.165v1.11H7.5l-.92 3.248-.02.086H1.083v1.11h5.476c.527 0 .978-.389 1.067-.921z"/>
        <path d="M0 2.222h3.248v1.111H0z"/>
      </g>
    </g>
  </g>
</svg>
